<svg xmlns="http://www.w3.org/2000/svg" width="512" height="512" viewBox="0 0 512 512">
  <!-- 背景 -->
  <rect width="512" height="512" fill="#000000" rx="110" ry="110" />
  
  <!-- 蘋果標誌 -->
  <g transform="translate(256, 190) scale(2.7)">
    <path d="M37.8-37c-8,0-15,4.2-19.4,4.2-4.5,0-11.3-4.1-18.6-4.1-9.4,0-19.1,5.5-24.1,14.7-10.4,18-2.7,44.6,7.3,59.2,5,7.1,10.8,15,18.4,14.7,7.4-0.3,10.2-4.7,19.2-4.7s11.5,4.7,19.2,4.5c8-0.1,13-7.1,17.8-14.3,5.6-8,7.9-15.8,8-16.2-0.2-0.1-15.3-5.8-15.4-23-0.1-14.4,11.8-21.3,12.3-21.7C55.6-31.5,44.1-37,37.8-37z" fill="#FFFFFF"/>
    <path d="M21.7-64c4-4.9,6.8-11.8,6-18.6-5.8,0.2-13,3.9-17.1,8.7-3.7,4.3-7,11.4-6.1,18C10.7-42.3,17.5-59,21.7-64z" fill="#FFFFFF"/>
  </g>
  
  <!-- 飛機圖標 -->
  <g transform="translate(256, 330) scale(0.8)">
    <path d="M150 -30 L90 -75 Q85 -79 80 -75 L-130 30 Q-140 35 -130 45 L-95 65 L-115 110 Q-120 120 -110 125 L-80 135 Q-65 140 -55 130 L-25 100 L20 125 Q25 130 30 125 L60 85 Q65 80 60 75 L35 45 L105 -10 Q125 -25 150 -30 Z" fill="#FFFFFF"/>
  </g>
</svg>